<svg preserveAspectRatio="none" overflow="visible" style="display: block;" width="14" height="14" viewBox="0 0 14 14" fill="none" xmlns="http://www.w3.org/2000/svg">
<g id="iconamoon:search-thin">
<path id="Vector" d="M12.5001 13.0001L9.9667 10.4667M9.9667 10.4667C10.4001 10.0334 10.7438 9.51889 10.9783 8.95269C11.2129 8.38649 11.3336 7.77964 11.3336 7.16679C11.3336 6.55394 11.2129 5.94709 10.9783 5.38088C10.7438 4.81468 10.4001 4.30022 9.9667 3.86687C9.53335 3.43352 9.01889 3.08977 8.45269 2.85524C7.88649 2.62071 7.27964 2.5 6.66679 2.5C6.05394 2.5 5.44709 2.62071 4.88088 2.85524C4.31468 3.08977 3.80022 3.43352 3.36687 3.86687C2.49168 4.74206 2 5.92908 2 7.16679C2 8.4045 2.49168 9.59151 3.36687 10.4667C4.24206 11.3419 5.42908 11.8336 6.66679 11.8336C7.9045 11.8336 9.09151 11.3419 9.9667 10.4667Z" stroke="#1A1D21" stroke-linecap="round" stroke-linejoin="round"/>
</g>
</svg>
