<svg preserveAspectRatio="none" overflow="visible" style="display: block;" width="16" height="18" viewBox="0 0 16 18" fill="none" xmlns="http://www.w3.org/2000/svg">
<g id="weui:setting-outlined">
<path id="Vector" fill-rule="evenodd" clip-rule="evenodd" d="M8.92225 3.84H8.07775L7.594 5.6446L7.10875 5.7846C6.82599 5.86592 6.55203 5.97185 6.2905 6.101L5.84125 6.3229L4.13125 5.3653L3.53425 5.9232L4.56025 7.5192L4.3225 7.9378C4.18387 8.18187 4.07012 8.43756 3.98275 8.7015L3.8335 9.1544L1.9 9.6059V10.3941L3.8335 10.8456L3.9835 11.2985C4.07 11.5636 4.183 11.8181 4.3225 12.0622L4.56025 12.4815L3.53425 14.0775L4.132 14.6347L5.842 13.6771L6.2905 13.899C6.552 14.0287 6.82475 14.1344 7.10875 14.2161L7.594 14.3554L8.07775 16.16H8.92225L9.406 14.3554L9.89125 14.2154C10.174 14.1341 10.448 14.0281 10.7095 13.899L11.1588 13.6771L12.8688 14.6347L13.4658 14.0768L12.4398 12.4808L12.6775 12.0622C12.8165 11.8181 12.9298 11.5636 13.0173 11.2985L13.1665 10.8456L15.1 10.3941V9.6059L13.1665 9.1544L13.0165 8.7015C12.9294 8.43759 12.8159 8.1819 12.6775 7.9378L12.4398 7.5185L13.4658 5.9225L12.868 5.3653L11.158 6.3229L10.7095 6.101C10.448 5.97161 10.174 5.86545 9.89125 5.7839L9.406 5.6446L8.92225 3.84ZM11.131 5.359L12.5057 4.589C12.6491 4.50875 12.8171 4.4755 12.983 4.49452C13.1489 4.51355 13.3032 4.58376 13.4215 4.694L14.185 5.4066C14.3031 5.51699 14.3783 5.66105 14.3987 5.81589C14.4191 5.97074 14.3835 6.12751 14.2975 6.2613L13.4725 7.5444C13.6375 7.83373 13.7725 8.13707 13.8775 8.4544L15.4323 8.8177C15.5944 8.85562 15.7384 8.94303 15.8413 9.06605C15.9441 9.18908 16 9.34065 16 9.4967V10.5033C16 10.6593 15.9441 10.8109 15.8413 10.9339C15.7384 11.057 15.5944 11.1444 15.4323 11.1823L13.8775 11.5456C13.7725 11.8629 13.6375 12.1663 13.4725 12.4556L14.2975 13.7387C14.3835 13.8725 14.4191 14.0293 14.3987 14.1841C14.3783 14.339 14.3031 14.483 14.185 14.5934L13.4215 15.306C13.3032 15.4162 13.1489 15.4865 12.983 15.5055C12.8171 15.5245 12.6491 15.4912 12.5057 15.411L11.131 14.641C10.821 14.795 10.496 14.921 10.156 15.019L9.76675 16.4701C9.72612 16.6215 9.63246 16.7558 9.50066 16.8518C9.36885 16.9478 9.20645 17 9.03925 17H7.96075C7.79355 17 7.63115 16.9478 7.49934 16.8518C7.36754 16.7558 7.27388 16.6215 7.23325 16.4701L6.844 15.019C6.50702 14.9218 6.18058 14.7953 5.869 14.641L4.49425 15.411C4.3509 15.4912 4.18294 15.5245 4.01703 15.5055C3.85112 15.4865 3.69678 15.4162 3.5785 15.306L2.815 14.5934C2.69688 14.483 2.62166 14.339 2.60128 14.1841C2.58089 14.0293 2.61652 13.8725 2.7025 13.7387L3.5275 12.4556C3.36223 12.1648 3.22663 11.8601 3.1225 11.5456L1.56775 11.1823C1.40569 11.1444 1.26182 11.0571 1.15897 10.9342C1.05612 10.8113 1.00017 10.6599 1 10.504V9.4974C1 9.34135 1.05588 9.18978 1.15874 9.06675C1.26161 8.94373 1.40557 8.85632 1.56775 8.8184L3.1225 8.4551C3.2275 8.13777 3.3625 7.83443 3.5275 7.5451L2.7025 6.262C2.61652 6.12821 2.58089 5.97144 2.60128 5.81659C2.62166 5.66175 2.69688 5.51769 2.815 5.4073L3.5785 4.694C3.69678 4.58376 3.85112 4.51355 4.01703 4.49452C4.18294 4.4755 4.3509 4.50875 4.49425 4.589L5.869 5.359C6.179 5.205 6.504 5.079 6.844 4.981L7.23325 3.5299C7.27385 3.37864 7.36739 3.24437 7.49905 3.14837C7.6307 3.05238 7.79293 3.00016 7.96 3H9.0385C9.2057 3 9.3681 3.05215 9.49991 3.14816C9.63171 3.24417 9.72537 3.37853 9.766 3.5299L10.1552 4.981C10.4952 5.079 10.8202 5.205 11.1302 5.359H11.131ZM8.5 11.96C9.05695 11.96 9.5911 11.7535 9.98492 11.3859C10.3788 11.0184 10.6 10.5198 10.6 10C10.6 9.48018 10.3788 8.98164 9.98492 8.61407C9.5911 8.2465 9.05695 8.04 8.5 8.04C7.94305 8.04 7.4089 8.2465 7.01508 8.61407C6.62125 8.98164 6.4 9.48018 6.4 10C6.4 10.5198 6.62125 11.0184 7.01508 11.3859C7.4089 11.7535 7.94305 11.96 8.5 11.96ZM8.5 12.8C7.70435 12.8 6.94129 12.505 6.37868 11.9799C5.81607 11.4548 5.5 10.7426 5.5 10C5.5 9.25739 5.81607 8.5452 6.37868 8.0201C6.94129 7.495 7.70435 7.2 8.5 7.2C9.29565 7.2 10.0587 7.495 10.6213 8.0201C11.1839 8.5452 11.5 9.25739 11.5 10C11.5 10.7426 11.1839 11.4548 10.6213 11.9799C10.0587 12.505 9.29565 12.8 8.5 12.8Z" fill="black"/>
</g>
</svg>
